<svg width="78" height="78" viewBox="0 0 78 78" fill="none" xmlns="http://www.w3.org/2000/svg">
<path d="M39 0C60.5391 0 78 17.4609 78 39C78 60.5391 60.5391 78 39 78C17.4609 78 0 60.5391 0 39C0 17.4609 17.4609 0 39 0ZM38.6963 30.2578C35.7997 30.2578 34.3516 31.0484 34.3516 32.6289C34.3518 32.9365 34.6073 33.7265 35.1182 34.999C35.6506 36.2722 35.917 37.7325 35.917 39.3789L35.8848 40.6953C35.8848 41.5514 35.8321 42.7485 35.7256 44.2852L35.6611 45.1738L35.5654 46.9854C35.5654 47.3147 35.5336 47.9071 35.4697 48.7627C35.4697 51.7701 35.2243 54.1521 34.7344 55.9082C34.2446 57.6419 34.0001 58.6518 34 58.9375V59.6621C34 60.2329 34.2773 60.7705 34.8311 61.2754C35.3848 61.7583 36.1939 62 37.2588 62H38.0576C39.8893 62 41.3374 61.6815 42.4023 61.0449C43.4673 60.4083 44 59.5522 44 58.4766V58.1807C44 57.7636 43.7445 57.0938 43.2334 56.1719C42.7223 55.228 42.3704 54.2622 42.1787 53.2744C42.0083 52.2866 41.9229 50.2118 41.9229 47.0508V45.7666L42.0195 43.0664L42.083 42.1777L42.4346 33.3203C42.4346 32.4422 42.2746 31.7172 41.9551 31.1465C41.6355 30.554 40.9328 30.2578 39.8467 30.2578H38.6963ZM39.9424 16L39.208 16.0986C38.3561 16.0986 37.6524 16.4387 37.0986 17.1191C36.5662 17.7996 36.3008 18.371 36.3008 18.832L36.1406 20.0176V20.4121C36.1406 21.5097 36.407 22.333 36.9395 22.8818C37.4719 23.4306 38.0255 23.7051 38.6006 23.7051L39.5908 23.8369H40.1025C41.4015 23.8369 42.3599 23.4527 42.9775 22.6846C43.6165 21.8943 43.9365 20.9389 43.9365 19.8193V19.4248C43.9365 18.3493 43.6591 17.5371 43.1055 16.9883C42.573 16.4175 42.0294 16.1318 41.4756 16.1318L40.5811 16H39.9424Z" fill="#B0D1FF" fill-opacity="0.3"/>
</svg>
