<svg width="48" height="48" viewBox="0 0 48 48" fill="none" xmlns="http://www.w3.org/2000/svg">
<path d="M40.6234 19.2855C41.027 18.68 41.1672 17.9066 40.9429 17.1578C40.5348 15.7957 39.0563 15.0586 37.6993 15.4872L31.8511 17.335C30.5477 17.7465 29.1723 16.9487 28.8857 15.6136C28.7648 15.0523 28.6563 14.4206 28.5668 13.7109C28.2461 11.1647 26.6555 9.92453 25.1749 9.32051C24.0114 8.84564 22.7963 9.87768 23.0758 11.1019C23.3941 12.4968 23.6476 14.2632 23.5674 15.699C23.3311 19.9295 17.8907 22.1603 17.8907 22.1603L22.6459 40.39L42.2306 34.2029C43.5638 33.7818 44.3032 32.3602 43.8815 31.0278C43.6898 30.4223 43.266 29.9934 42.8829 29.7128C42.6077 29.5113 42.6131 29.104 42.8859 28.8992C43.7202 28.272 44.1103 27.1652 43.7775 26.1139C43.5352 25.3477 42.9612 24.7782 42.2637 24.5127C41.9777 24.404 41.8659 24.0499 42.0371 23.7967C42.4552 23.1788 42.5968 22.3832 42.3545 21.6169C42.1118 20.8504 41.5379 20.2809 40.8401 20.0154C40.548 19.9043 40.4498 19.5457 40.6234 19.2855Z" fill="#FEE0C8"/>
<path d="M27.2921 32.4627C22.374 29.8384 20.9238 24.2055 20.5148 20.5205C19.0782 21.6533 17.6395 22.2348 17.6395 22.2348L22.4413 40.39L34.711 36.5668C32.6371 35.3867 29.9342 33.8725 27.2921 32.4627Z" fill="#FFCDB7"/>
<path d="M18.4267 43.3575L21.5073 42.384C23.4427 41.7726 24.5156 39.7089 23.9036 37.7749L18.4733 20.6119L11.8883 22.6927C10.2888 23.1981 9.40196 24.9037 9.90789 26.5021L14.6145 41.3785C15.1204 42.9769 16.8272 43.8629 18.4267 43.3575Z" fill="#28D8A1"/>
<path d="M14.71 41.3646C15.2109 42.9736 16.9004 43.8653 18.4837 43.3566L21.5333 42.3769C23.4491 41.7615 24.5111 39.6845 23.9053 37.738L22.6292 33.637C17.2831 34.3967 13.814 33.1807 11.7741 31.9301L14.71 41.3646Z" fill="#00C286"/>
<path d="M20.7182 37.6115C21.0522 38.6706 20.4663 39.8012 19.4088 40.1359C18.3517 40.4708 17.2235 39.8836 16.8892 38.8245C16.5549 37.7651 17.1408 36.6348 18.1983 36.2998C19.2555 35.9652 20.3839 36.5521 20.7182 37.6115Z" fill="#FFEB99"/>
<path d="M13.1645 2.75822L13.7038 3.74608C14.2417 4.7313 15.0504 5.54129 16.0338 6.08021L17.0198 6.62059C18.0288 7.17332 18.0288 8.62513 17.0198 9.17786L16.0338 9.71825C15.0504 10.2572 14.2417 11.0672 13.7038 12.0524L13.1645 13.0402C12.6127 14.051 11.1635 14.051 10.6118 13.0402L10.0724 12.0524C9.53453 11.0672 8.72592 10.2572 7.74251 9.71825L6.75675 9.17786C5.74775 8.62513 5.74775 7.17332 6.75675 6.6203L7.74251 6.08021C8.72621 5.54129 9.53453 4.7313 10.0724 3.74608L10.6118 2.75822C11.1635 1.74742 12.6127 1.74742 13.1645 2.75822Z" fill="#FFE65A"/>
<path d="M39.5655 39.9517C39.9251 40.6591 40.4658 41.2409 41.1231 41.6279L41.7823 42.0158C42.457 42.413 42.457 43.4556 41.7823 43.8525L41.1231 44.2405C40.4658 44.6275 39.9251 45.2092 39.5655 45.9167L39.2048 46.6262C38.8358 47.3522 37.8669 47.3522 37.4979 46.6262L37.1375 45.9167C36.7779 45.2092 36.2372 44.6275 35.5796 44.2405L34.9204 43.8525C34.2458 43.4556 34.2458 42.413 34.9204 42.0158L35.5796 41.6279C36.2372 41.2409 36.7777 40.6591 37.1375 39.9517L37.4979 39.2425C37.8669 38.5165 38.8358 38.5165 39.2048 39.2425L39.5655 39.9517Z" fill="#FFDE55"/>
</svg>
